<?xml version="1.0" encoding="UTF-8" standalone="no"?>
<svg
   xmlns:dc="http://purl.org/dc/elements/1.1/"
   xmlns:cc="http://creativecommons.org/ns#"
   xmlns:rdf="http://www.w3.org/1999/02/22-rdf-syntax-ns#"
   xmlns:svg="http://www.w3.org/2000/svg"
   xmlns="http://www.w3.org/2000/svg"
   xmlns:sodipodi="http://sodipodi.sourceforge.net/DTD/sodipodi-0.dtd"
   xmlns:inkscape="http://www.inkscape.org/namespaces/inkscape"
   width="84.136"
   height="85"
   viewBox="0 0 84.136 85"
   version="1.1"
   id="svg19"
   sodipodi:docname="logo.svg"
   inkscape:version="0.92.4 (5da689c313, 2019-01-14)">
  <metadata
     id="metadata23">
    <rdf:RDF>
      <cc:Work
         rdf:about="">
        <dc:format>image/svg+xml</dc:format>
        <dc:type
           rdf:resource="http://purl.org/dc/dcmitype/StillImage" />
      </cc:Work>
    </rdf:RDF>
  </metadata>
  <sodipodi:namedview
     pagecolor="#ffffff"
     bordercolor="#666666"
     borderopacity="1"
     objecttolerance="10"
     gridtolerance="10"
     guidetolerance="10"
     inkscape:pageopacity="0"
     inkscape:pageshadow="2"
     inkscape:window-width="1920"
     inkscape:window-height="1017"
     id="namedview21"
     showgrid="false"
     inkscape:zoom="2.7764706"
     inkscape:cx="-108.27396"
     inkscape:cy="42.240618"
     inkscape:window-x="-8"
     inkscape:window-y="-8"
     inkscape:window-maximized="1"
     inkscape:current-layer="svg19" />
  <defs
     id="defs4">
    <clipPath
       id="clip-path">
      <rect
         id="Rectangle_712"
         data-name="Rectangle 712"
         width="69"
         height="69"
         transform="translate(0.203 0.203)" />
    </clipPath>
  </defs>
  <g
     id="Group_955"
     data-name="Group 955"
     transform="translate(-1763.864 -179)">
    <g
       id="fabicon-01"
       transform="translate(1771.996 177.697)">
      <g
         id="Group_954"
         data-name="Group 954"
         transform="translate(-1 3)">
        <g
           id="Group_952"
           data-name="Group 952"
           transform="translate(-2.2 -1.9)"
           clip-path="url(#clip-path)">
          <path
             id="Path_763"
             data-name="Path 763"
             d="M9.451,8.782h0A5.978,5.978,0,0,0,4.7,14.4a5.9,5.9,0,0,0,6.046,6.046,10.164,10.164,0,0,0,3.455-.864h0S32.339,7.055,34.067,6.191A1.587,1.587,0,0,0,34.5,4.9c0-.864-.864-1.3-1.727-1.3C31.044,4.032,9.451,8.351,9.451,8.782"
             transform="translate(25.099 20.153)"
             fill="#0ba7fd" />
        </g>
        <g
           id="Group_953"
           data-name="Group 953"
           transform="translate(-2.2 -1.9)"
           clip-path="url(#clip-path)">
          <path
             id="Path_764"
             data-name="Path 764"
             d="M49.417,35.658a4.274,4.274,0,0,0-2.159-3.023,4.035,4.035,0,0,0-3.887,0c-1.3.432-2.159,1.3-3.455,3.023-.864,1.3-5.182,7.774-15.547,6.91C15.731,41.7,8.821,33.93,10.117,24.861a12.937,12.937,0,0,1,2.591-7.774,17.485,17.485,0,0,1,13.82-8.205,21.109,21.109,0,0,1,5.614.432l1.727.864a1.587,1.587,0,0,1,.432,1.3v1.3c0,.432,0,.432.432.864H35.6a27.529,27.529,0,0,1,3.887-.864h0c2.591-.432,4.751-.864,4.751-.864.864,0,1.3-.864,1.727-1.3a2.083,2.083,0,0,0-.432-2.591,29.444,29.444,0,0,1-3.023-2.159A22.337,22.337,0,0,0,29.119.244,25.939,25.939,0,0,0,.184,23.565C-1.112,37.817,9.253,51.2,23.5,52.5A26,26,0,0,0,45.1,43.863c.864-.864,4.751-5.182,4.319-8.205"
             transform="translate(9.749 8.393)"
             fill="#0f6db5" />
        </g>
      </g>
    </g>
  </g>
  <g
     transform="matrix(0.79122504,0,0,0.75928109,-6.3260852,4.259106)"
     id="Group_3"
     data-name="Group 3">
    <path
       id="Path_3"
       data-name="Path 3"
       d="m 86.238,103.6 a 2.609,2.609 0 0 1 -2.606,-2.606 V 90.726 a 4.092,4.092 0 0 0 -4.3,-4.3 4.544,4.544 0 0 0 -4.543,4.3 v 2.59 7.673 a 2.606,2.606 0 1 1 -5.212,0 v -7.673 c 0,-1.086 0.015,-1.832 0.015,-2.59 a 4.464,4.464 0 0 0 -1.661,-3.5 4.03,4.03 0 0 0 -1.812,-0.773 2.573,2.573 0 0 0 -2.256,0.72 c -0.026,0.026 -0.13,0.144 -0.178,0.2 a 0.6,0.6 0 0 1 -0.4,0.2 0.592,0.592 0 0 1 -0.641,-0.646 5.423,5.423 0 0 1 5.184,-5.027 6.69,6.69 0 0 1 6.346,4.174 c 3.139,-4.24 6.607,-4.176 7.723,-4.175 a 6.829,6.829 0 0 1 5.341,2.406 6.632,6.632 0 0 1 1.606,4.576 v 12.107 a 2.609,2.609 0 0 1 -2.606,2.612 z"
       inkscape:connector-curvature="0"
       style="fill:#1c4476" />
    <path
       id="Path_4"
       data-name="Path 4"
       d="m 58.191,103.593 a 2.6,2.6 0 0 1 -2.582,-2.605 V 84.537 a 2.57,2.57 0 1 1 5.139,0 l 0.024,16.451 a 2.6,2.6 0 0 1 -2.581,2.605 z"
       inkscape:connector-curvature="0"
       style="fill:#1c4476" />
    <path
       id="Path_5"
       data-name="Path 5"
       d="m 95.981,79.605 a 1.819,1.819 0 0 0 -2.262,1.23 0.758,0.758 0 0 0 -0.027,0.113 l -0.03,0.176 a 0.294,0.294 0 0 0 -0.011,0.061 L 92.6,87.042 a 1.137,1.137 0 0 0 0.8,1.3 1.173,1.173 0 0 0 0.329,0.047 1.125,1.125 0 0 0 1.047,-0.705 l 2.375,-5.641 a 1.787,1.787 0 0 0 0.063,-0.178 1.824,1.824 0 0 0 -1.233,-2.26 z M 93.8,81.21 Z"
       inkscape:connector-curvature="0"
       style="fill:#1c4476" />
    <path
       id="Path_6"
       data-name="Path 6"
       d="m 42.193,104.074 a 9.05,9.05 0 0 1 -5.408,-1.651 2.373,2.373 0 0 1 -0.974,-1.676 2.33,2.33 0 0 1 2.32,-2.575 2.242,2.242 0 0 1 1.348,0.462 5.234,5.234 0 0 0 3,1.172 2.379,2.379 0 0 0 2.646,-2.125 c 0,-1.094 -1.016,-1.839 -2.541,-2.622 l -1.841,-0.941 c -3.438,-1.739 -5.109,-3.839 -5.109,-6.419 0,-3.435 2.924,-6.026 6.8,-6.026 a 8.555,8.555 0 0 1 4.946,1.536 2.234,2.234 0 0 1 0.941,1.632 2.277,2.277 0 0 1 -0.649,1.81 2.3,2.3 0 0 1 -1.625,0.682 2.168,2.168 0 0 1 -1.176,-0.392 4.537,4.537 0 0 0 -2.366,-0.961 c -1.539,-0.03 -2.287,0.819 -2.287,1.756 0,0.937 0.836,1.333 2.012,1.941 l 2.143,1.094 c 3.882,1.985 5.4,3.877 5.4,6.746 0,3.861 -3.117,6.557 -7.58,6.557 z"
       inkscape:connector-curvature="0"
       style="fill:#1c4476" />
    <path
       id="Path_7"
       data-name="Path 7"
       d="m 106.494,104.074 a 9.05,9.05 0 0 1 -5.408,-1.651 2.373,2.373 0 0 1 -0.974,-1.676 2.33,2.33 0 0 1 2.32,-2.575 2.242,2.242 0 0 1 1.348,0.462 5.234,5.234 0 0 0 3,1.172 2.379,2.379 0 0 0 2.646,-2.125 c 0,-1.094 -1.015,-1.839 -2.541,-2.622 l -1.841,-0.941 c -3.438,-1.739 -5.109,-3.839 -5.109,-6.419 0,-3.435 2.925,-6.026 6.8,-6.026 a 8.555,8.555 0 0 1 4.946,1.536 2.231,2.231 0 0 1 0.941,1.632 2.277,2.277 0 0 1 -0.649,1.81 2.3,2.3 0 0 1 -1.625,0.682 2.168,2.168 0 0 1 -1.176,-0.392 4.534,4.534 0 0 0 -2.365,-0.961 c -1.54,-0.03 -2.288,0.819 -2.288,1.756 0,0.937 0.836,1.333 2.012,1.941 l 2.143,1.094 c 3.882,1.985 5.395,3.877 5.395,6.746 0.005,3.861 -3.112,6.557 -7.575,6.557 z"
       inkscape:connector-curvature="0"
       style="fill:#1c4476" />
    <g
       id="Group_2"
       data-name="Group 2">
      <path
         id="Path_8"
         data-name="Path 8"
         d="M 19.9,81.663 C 12.824,81.663 9,87.574 9,92.914 a 10.893,10.893 0 0 0 10.956,11.169 c 5.282,0 7.441,-2.244 8,-2.729 a 2.262,2.262 0 0 0 -2.543,-3.7 17.43,17.43 0 0 1 -1.513,1.028 7.842,7.842 0 0 1 -3.94,0.859 6.712,6.712 0 0 1 0.02,-13.414 5.812,5.812 0 0 1 5.742,3.485 0.552,0.552 0 0 1 -0.547,0.8 h -7.117 a 2.435,2.435 0 0 0 -1.985,0.952 2.6,2.6 0 0 0 -0.472,0.9 3.675,3.675 0 0 0 -0.07,1.368 0.972,0.972 0 0 0 1.069,0.868 h 12.721 a 1.629,1.629 0 0 0 1.558,-1.68 C 30.629,86.427 26.273,81.663 19.9,81.663 Z"
         inkscape:connector-curvature="0"
         style="fill:#1c4476" />
    </g>
  </g>
</svg>
